<svg xmlns="http://www.w3.org/2000/svg" xmlns:xlink="http://www.w3.org/1999/xlink" width="64" zoomAndPan="magnify" viewBox="0 0 48 37.5" height="50" preserveAspectRatio="xMidYMid meet" version="1.0"><defs><g><g id="id1"/></g></defs><path fill="rgb(100%, 76.078796%, 31.369019%)" d="M 21.699219 15.011719 C 16.945312 16.492188 9.265625 14.980469 9.199219 8.398438 C 9.128906 1.8125 17.324219 5.734375 17.324219 5.734375 Z M 21.699219 15.011719 " fill-opacity="1" fill-rule="nonzero"/><path fill="rgb(100%, 81.568909%, 39.219666%)" d="M 11.507812 4.703125 C 14.828125 4.132812 17.347656 8.53125 20.136719 13.117188 C 22.921875 17.703125 30.183594 19.523438 34.820312 15.664062 C 39.460938 11.808594 41.425781 5.054688 35.726562 1.023438 C 30.03125 -3.003906 26.476562 6.140625 21.574219 6.394531 C 16.671875 6.644531 16.636719 3 11.507812 4.703125 Z M 11.507812 4.703125 " fill-opacity="1" fill-rule="nonzero"/><path fill="rgb(100%, 88.238525%, 61.569214%)" d="M 36.703125 8.601562 C 36.703125 8.792969 36.667969 8.980469 36.59375 9.160156 C 36.519531 9.335938 36.414062 9.496094 36.277344 9.632812 C 36.140625 9.769531 35.984375 9.871094 35.804688 9.945312 C 35.625 10.019531 35.441406 10.058594 35.246094 10.058594 C 35.054688 10.058594 34.867188 10.019531 34.691406 9.945312 C 34.511719 9.871094 34.355469 9.769531 34.21875 9.632812 C 34.082031 9.496094 33.976562 9.335938 33.902344 9.160156 C 33.828125 8.980469 33.792969 8.792969 33.792969 8.601562 C 33.792969 8.410156 33.828125 8.222656 33.902344 8.042969 C 33.976562 7.867188 34.082031 7.707031 34.21875 7.574219 C 34.355469 7.4375 34.511719 7.332031 34.691406 7.257812 C 34.867188 7.183594 35.054688 7.144531 35.246094 7.144531 C 35.441406 7.144531 35.625 7.183594 35.804688 7.257812 C 35.984375 7.332031 36.140625 7.4375 36.277344 7.574219 C 36.414062 7.707031 36.519531 7.867188 36.59375 8.042969 C 36.667969 8.222656 36.703125 8.410156 36.703125 8.601562 Z M 36.703125 8.601562 " fill-opacity="1" fill-rule="nonzero"/><path fill="rgb(100%, 88.238525%, 61.569214%)" d="M 33.550781 9.695312 C 33.550781 9.839844 33.519531 9.976562 33.464844 10.113281 C 33.410156 10.246094 33.332031 10.363281 33.230469 10.464844 C 33.125 10.570312 33.007812 10.648438 32.875 10.703125 C 32.742188 10.757812 32.601562 10.785156 32.457031 10.785156 C 32.3125 10.785156 32.171875 10.757812 32.039062 10.703125 C 31.90625 10.648438 31.785156 10.570312 31.683594 10.464844 C 31.582031 10.363281 31.503906 10.246094 31.449219 10.113281 C 31.390625 9.976562 31.363281 9.839844 31.363281 9.695312 C 31.363281 9.546875 31.390625 9.410156 31.449219 9.277344 C 31.503906 9.140625 31.582031 9.023438 31.683594 8.921875 C 31.785156 8.820312 31.90625 8.738281 32.039062 8.683594 C 32.171875 8.628906 32.3125 8.601562 32.457031 8.601562 C 32.601562 8.601562 32.742188 8.628906 32.875 8.683594 C 33.007812 8.738281 33.125 8.820312 33.230469 8.921875 C 33.332031 9.023438 33.410156 9.140625 33.464844 9.277344 C 33.519531 9.410156 33.550781 9.546875 33.550781 9.695312 Z M 33.550781 9.695312 " fill-opacity="1" fill-rule="nonzero"/><path fill="rgb(100%, 88.238525%, 61.569214%)" d="M 35.25 11.148438 C 35.25 11.382812 35.164062 11.585938 35 11.75 C 34.832031 11.917969 34.632812 12 34.398438 12 C 34.164062 12 33.964844 11.917969 33.796875 11.75 C 33.632812 11.585938 33.550781 11.382812 33.550781 11.148438 C 33.550781 10.914062 33.632812 10.714844 33.796875 10.550781 C 33.964844 10.382812 34.164062 10.300781 34.398438 10.300781 C 34.632812 10.300781 34.832031 10.382812 35 10.550781 C 35.164062 10.714844 35.25 10.914062 35.25 11.148438 Z M 35.25 11.148438 " fill-opacity="1" fill-rule="nonzero"/><g fill="rgb(100%, 91.369629%, 83.529663%)" fill-opacity="1"><g transform="translate(2.676779, 32.655086)"><g><path d="M 1.484375 0.078125 C 1.066406 0.078125 0.742188 -0.0351562 0.515625 -0.265625 C 0.285156 -0.492188 0.171875 -0.804688 0.171875 -1.203125 L 0.71875 -1.203125 C 0.71875 -0.972656 0.769531 -0.78125 0.875 -0.625 C 0.988281 -0.476562 1.1875 -0.40625 1.46875 -0.40625 C 1.738281 -0.40625 1.925781 -0.476562 2.03125 -0.625 C 2.132812 -0.78125 2.1875 -0.96875 2.1875 -1.1875 L 2.1875 -4.5 L 2.734375 -4.5 L 2.734375 -1.1875 C 2.734375 -0.789062 2.617188 -0.476562 2.390625 -0.25 C 2.171875 -0.03125 1.867188 0.078125 1.484375 0.078125 Z M 1.484375 0.078125 "/></g></g></g><g fill="rgb(100%, 91.369629%, 83.529663%)" fill-opacity="1"><g transform="translate(5.877887, 32.655086)"><g><path d="M 1.890625 0.078125 C 1.585938 0.078125 1.316406 0.0078125 1.078125 -0.125 C 0.835938 -0.257812 0.648438 -0.453125 0.515625 -0.703125 C 0.378906 -0.953125 0.3125 -1.25 0.3125 -1.59375 C 0.3125 -1.925781 0.378906 -2.21875 0.515625 -2.46875 C 0.660156 -2.71875 0.851562 -2.910156 1.09375 -3.046875 C 1.332031 -3.191406 1.601562 -3.265625 1.90625 -3.265625 C 2.207031 -3.265625 2.476562 -3.191406 2.71875 -3.046875 C 2.957031 -2.910156 3.144531 -2.71875 3.28125 -2.46875 C 3.425781 -2.21875 3.5 -1.925781 3.5 -1.59375 C 3.5 -1.25 3.425781 -0.953125 3.28125 -0.703125 C 3.132812 -0.453125 2.941406 -0.257812 2.703125 -0.125 C 2.460938 0.0078125 2.191406 0.078125 1.890625 0.078125 Z M 1.890625 -0.390625 C 2.078125 -0.390625 2.25 -0.429688 2.40625 -0.515625 C 2.5625 -0.609375 2.6875 -0.742188 2.78125 -0.921875 C 2.882812 -1.097656 2.9375 -1.320312 2.9375 -1.59375 C 2.9375 -1.851562 2.890625 -2.070312 2.796875 -2.25 C 2.703125 -2.4375 2.570312 -2.570312 2.40625 -2.65625 C 2.25 -2.75 2.082031 -2.796875 1.90625 -2.796875 C 1.71875 -2.796875 1.546875 -2.75 1.390625 -2.65625 C 1.234375 -2.570312 1.101562 -2.4375 1 -2.25 C 0.90625 -2.070312 0.859375 -1.851562 0.859375 -1.59375 C 0.859375 -1.320312 0.90625 -1.097656 1 -0.921875 C 1.101562 -0.742188 1.234375 -0.609375 1.390625 -0.515625 C 1.546875 -0.429688 1.710938 -0.390625 1.890625 -0.390625 Z M 1.890625 -0.390625 "/></g></g></g><g fill="rgb(100%, 91.369629%, 83.529663%)" fill-opacity="1"><g transform="translate(9.675599, 32.655086)"><g><path d="M 1.65625 0.078125 C 1.28125 0.078125 0.960938 -0.015625 0.703125 -0.203125 C 0.453125 -0.398438 0.304688 -0.664062 0.265625 -1 L 0.828125 -1 C 0.859375 -0.832031 0.941406 -0.6875 1.078125 -0.5625 C 1.222656 -0.4375 1.421875 -0.375 1.671875 -0.375 C 1.898438 -0.375 2.066406 -0.421875 2.171875 -0.515625 C 2.273438 -0.617188 2.328125 -0.734375 2.328125 -0.859375 C 2.328125 -1.054688 2.253906 -1.1875 2.109375 -1.25 C 1.972656 -1.3125 1.78125 -1.367188 1.53125 -1.421875 C 1.363281 -1.460938 1.191406 -1.515625 1.015625 -1.578125 C 0.847656 -1.640625 0.707031 -1.726562 0.59375 -1.84375 C 0.476562 -1.957031 0.421875 -2.113281 0.421875 -2.3125 C 0.421875 -2.59375 0.523438 -2.820312 0.734375 -3 C 0.941406 -3.175781 1.222656 -3.265625 1.578125 -3.265625 C 1.910156 -3.265625 2.1875 -3.175781 2.40625 -3 C 2.625 -2.832031 2.75 -2.59375 2.78125 -2.28125 L 2.25 -2.28125 C 2.226562 -2.445312 2.15625 -2.578125 2.03125 -2.671875 C 1.914062 -2.765625 1.757812 -2.8125 1.5625 -2.8125 C 1.375 -2.8125 1.226562 -2.769531 1.125 -2.6875 C 1.019531 -2.601562 0.96875 -2.492188 0.96875 -2.359375 C 0.96875 -2.234375 1.035156 -2.132812 1.171875 -2.0625 C 1.304688 -1.988281 1.488281 -1.925781 1.71875 -1.875 C 1.914062 -1.832031 2.101562 -1.78125 2.28125 -1.71875 C 2.457031 -1.65625 2.601562 -1.5625 2.71875 -1.4375 C 2.832031 -1.320312 2.890625 -1.144531 2.890625 -0.90625 C 2.890625 -0.625 2.78125 -0.390625 2.5625 -0.203125 C 2.34375 -0.015625 2.039062 0.078125 1.65625 0.078125 Z M 1.65625 0.078125 "/></g></g></g><g fill="rgb(100%, 91.369629%, 83.529663%)" fill-opacity="1"><g transform="translate(12.883127, 32.655086)"><g><path d="M 0.4375 0 L 0.4375 -3.1875 L 0.9375 -3.1875 L 0.96875 -2.609375 C 1.070312 -2.816406 1.21875 -2.976562 1.40625 -3.09375 C 1.601562 -3.207031 1.820312 -3.265625 2.0625 -3.265625 C 2.4375 -3.265625 2.734375 -3.148438 2.953125 -2.921875 C 3.179688 -2.691406 3.296875 -2.335938 3.296875 -1.859375 L 3.296875 0 L 2.765625 0 L 2.765625 -1.796875 C 2.765625 -2.460938 2.488281 -2.796875 1.9375 -2.796875 C 1.664062 -2.796875 1.4375 -2.695312 1.25 -2.5 C 1.070312 -2.300781 0.984375 -2.019531 0.984375 -1.65625 L 0.984375 0 Z M 0.4375 0 "/></g></g></g><g fill="rgb(100%, 91.369629%, 83.529663%)" fill-opacity="1"><g transform="translate(16.552535, 32.655086)"><g><path d="M 0.796875 1.40625 L 1.578125 -0.3125 L 1.390625 -0.3125 L 0.125 -3.1875 L 0.71875 -3.1875 L 1.765625 -0.703125 L 2.890625 -3.1875 L 3.4375 -3.1875 L 1.359375 1.40625 Z M 0.796875 1.40625 "/></g></g></g><g fill="rgb(100%, 91.369629%, 83.529663%)" fill-opacity="1"><g transform="translate(20.119302, 32.655086)"><g><path d="M 2.140625 0.078125 C 1.878906 0.078125 1.644531 0.0234375 1.4375 -0.078125 C 1.238281 -0.191406 1.085938 -0.34375 0.984375 -0.53125 L 0.9375 0 L 0.4375 0 L 0.4375 -4.625 L 0.984375 -4.625 L 0.984375 -2.65625 C 1.085938 -2.8125 1.234375 -2.953125 1.421875 -3.078125 C 1.609375 -3.203125 1.851562 -3.265625 2.15625 -3.265625 C 2.46875 -3.265625 2.738281 -3.191406 2.96875 -3.046875 C 3.207031 -2.898438 3.390625 -2.695312 3.515625 -2.4375 C 3.648438 -2.1875 3.71875 -1.90625 3.71875 -1.59375 C 3.71875 -1.269531 3.648438 -0.984375 3.515625 -0.734375 C 3.390625 -0.484375 3.207031 -0.285156 2.96875 -0.140625 C 2.738281 0.00390625 2.460938 0.078125 2.140625 0.078125 Z M 2.09375 -0.390625 C 2.300781 -0.390625 2.484375 -0.4375 2.640625 -0.53125 C 2.804688 -0.632812 2.9375 -0.773438 3.03125 -0.953125 C 3.125 -1.140625 3.171875 -1.351562 3.171875 -1.59375 C 3.171875 -1.832031 3.125 -2.039062 3.03125 -2.21875 C 2.9375 -2.394531 2.804688 -2.535156 2.640625 -2.640625 C 2.484375 -2.742188 2.300781 -2.796875 2.09375 -2.796875 C 1.875 -2.796875 1.679688 -2.742188 1.515625 -2.640625 C 1.359375 -2.535156 1.234375 -2.394531 1.140625 -2.21875 C 1.046875 -2.039062 1 -1.832031 1 -1.59375 C 1 -1.351562 1.046875 -1.140625 1.140625 -0.953125 C 1.234375 -0.773438 1.359375 -0.632812 1.515625 -0.53125 C 1.679688 -0.4375 1.875 -0.390625 2.09375 -0.390625 Z M 2.09375 -0.390625 "/></g></g></g><g fill="rgb(100%, 91.369629%, 83.529663%)" fill-opacity="1"><g transform="translate(24.147958, 32.655086)"><g><path d="M 0.765625 -3.890625 C 0.660156 -3.890625 0.570312 -3.925781 0.5 -4 C 0.425781 -4.070312 0.390625 -4.160156 0.390625 -4.265625 C 0.390625 -4.367188 0.425781 -4.453125 0.5 -4.515625 C 0.570312 -4.585938 0.660156 -4.625 0.765625 -4.625 C 0.867188 -4.625 0.957031 -4.585938 1.03125 -4.515625 C 1.101562 -4.453125 1.140625 -4.367188 1.140625 -4.265625 C 1.140625 -4.160156 1.101562 -4.070312 1.03125 -4 C 0.957031 -3.925781 0.867188 -3.890625 0.765625 -3.890625 Z M 0.5 0 L 0.5 -3.1875 L 1.046875 -3.1875 L 1.046875 0 Z M 0.5 0 "/></g></g></g><g fill="rgb(100%, 91.369629%, 83.529663%)" fill-opacity="1"><g transform="translate(25.681159, 32.655086)"><g><path d="M 1.703125 0 C 1.410156 0 1.179688 -0.0664062 1.015625 -0.203125 C 0.847656 -0.347656 0.765625 -0.601562 0.765625 -0.96875 L 0.765625 -2.734375 L 0.21875 -2.734375 L 0.21875 -3.1875 L 0.765625 -3.1875 L 0.828125 -3.953125 L 1.296875 -3.953125 L 1.296875 -3.1875 L 2.234375 -3.1875 L 2.234375 -2.734375 L 1.296875 -2.734375 L 1.296875 -0.96875 C 1.296875 -0.769531 1.335938 -0.632812 1.421875 -0.5625 C 1.503906 -0.5 1.648438 -0.46875 1.859375 -0.46875 L 2.1875 -0.46875 L 2.1875 0 Z M 1.703125 0 "/></g></g></g><g fill="rgb(100%, 91.369629%, 83.529663%)" fill-opacity="1"><g transform="translate(28.163782, 32.655086)"><g/></g></g><g fill="rgb(100%, 91.369629%, 83.529663%)" fill-opacity="1"><g transform="translate(29.863771, 32.655086)"><g><path d="M 0.40625 0 L 0.40625 -0.375 C 0.707031 -0.613281 0.992188 -0.859375 1.265625 -1.109375 C 1.535156 -1.359375 1.773438 -1.601562 1.984375 -1.84375 C 2.203125 -2.082031 2.367188 -2.316406 2.484375 -2.546875 C 2.609375 -2.773438 2.671875 -2.992188 2.671875 -3.203125 C 2.671875 -3.367188 2.644531 -3.519531 2.59375 -3.65625 C 2.539062 -3.789062 2.453125 -3.898438 2.328125 -3.984375 C 2.210938 -4.066406 2.050781 -4.109375 1.84375 -4.109375 C 1.644531 -4.109375 1.476562 -4.0625 1.34375 -3.96875 C 1.21875 -3.882812 1.117188 -3.769531 1.046875 -3.625 C 0.984375 -3.476562 0.953125 -3.320312 0.953125 -3.15625 L 0.4375 -3.15625 C 0.4375 -3.457031 0.5 -3.710938 0.625 -3.921875 C 0.75 -4.128906 0.914062 -4.289062 1.125 -4.40625 C 1.34375 -4.519531 1.585938 -4.578125 1.859375 -4.578125 C 2.253906 -4.578125 2.578125 -4.460938 2.828125 -4.234375 C 3.085938 -4.003906 3.21875 -3.671875 3.21875 -3.234375 C 3.21875 -2.960938 3.148438 -2.695312 3.015625 -2.4375 C 2.878906 -2.1875 2.707031 -1.9375 2.5 -1.6875 C 2.300781 -1.445312 2.082031 -1.222656 1.84375 -1.015625 C 1.613281 -0.804688 1.398438 -0.617188 1.203125 -0.453125 L 3.375 -0.453125 L 3.375 0 Z M 0.40625 0 "/></g></g></g><g fill="rgb(100%, 91.369629%, 83.529663%)" fill-opacity="1"><g transform="translate(33.533179, 32.655086)"><g><path d="M 2.234375 0.078125 C 1.828125 0.078125 1.476562 -0.015625 1.1875 -0.203125 C 0.90625 -0.398438 0.6875 -0.671875 0.53125 -1.015625 C 0.375 -1.367188 0.296875 -1.78125 0.296875 -2.25 C 0.296875 -2.707031 0.375 -3.109375 0.53125 -3.453125 C 0.6875 -3.804688 0.90625 -4.082031 1.1875 -4.28125 C 1.476562 -4.476562 1.828125 -4.578125 2.234375 -4.578125 C 2.628906 -4.578125 2.96875 -4.476562 3.25 -4.28125 C 3.539062 -4.082031 3.765625 -3.804688 3.921875 -3.453125 C 4.078125 -3.109375 4.15625 -2.707031 4.15625 -2.25 C 4.15625 -1.78125 4.078125 -1.367188 3.921875 -1.015625 C 3.765625 -0.671875 3.539062 -0.398438 3.25 -0.203125 C 2.96875 -0.015625 2.628906 0.078125 2.234375 0.078125 Z M 2.234375 -0.390625 C 2.492188 -0.390625 2.726562 -0.460938 2.9375 -0.609375 C 3.144531 -0.765625 3.304688 -0.976562 3.421875 -1.25 C 3.535156 -1.53125 3.59375 -1.863281 3.59375 -2.25 C 3.59375 -2.632812 3.535156 -2.960938 3.421875 -3.234375 C 3.304688 -3.503906 3.144531 -3.710938 2.9375 -3.859375 C 2.726562 -4.015625 2.492188 -4.09375 2.234375 -4.09375 C 1.960938 -4.09375 1.722656 -4.015625 1.515625 -3.859375 C 1.316406 -3.710938 1.15625 -3.503906 1.03125 -3.234375 C 0.914062 -2.960938 0.859375 -2.632812 0.859375 -2.25 C 0.859375 -1.863281 0.914062 -1.53125 1.03125 -1.25 C 1.15625 -0.976562 1.316406 -0.765625 1.515625 -0.609375 C 1.722656 -0.460938 1.960938 -0.390625 2.234375 -0.390625 Z M 2.234375 -0.390625 "/></g></g></g><g fill="rgb(100%, 91.369629%, 83.529663%)" fill-opacity="1"><g transform="translate(37.978809, 32.655086)"><g><path d="M 0.40625 0 L 0.40625 -0.375 C 0.707031 -0.613281 0.992188 -0.859375 1.265625 -1.109375 C 1.535156 -1.359375 1.773438 -1.601562 1.984375 -1.84375 C 2.203125 -2.082031 2.367188 -2.316406 2.484375 -2.546875 C 2.609375 -2.773438 2.671875 -2.992188 2.671875 -3.203125 C 2.671875 -3.367188 2.644531 -3.519531 2.59375 -3.65625 C 2.539062 -3.789062 2.453125 -3.898438 2.328125 -3.984375 C 2.210938 -4.066406 2.050781 -4.109375 1.84375 -4.109375 C 1.644531 -4.109375 1.476562 -4.0625 1.34375 -3.96875 C 1.21875 -3.882812 1.117188 -3.769531 1.046875 -3.625 C 0.984375 -3.476562 0.953125 -3.320312 0.953125 -3.15625 L 0.4375 -3.15625 C 0.4375 -3.457031 0.5 -3.710938 0.625 -3.921875 C 0.75 -4.128906 0.914062 -4.289062 1.125 -4.40625 C 1.34375 -4.519531 1.585938 -4.578125 1.859375 -4.578125 C 2.253906 -4.578125 2.578125 -4.460938 2.828125 -4.234375 C 3.085938 -4.003906 3.21875 -3.671875 3.21875 -3.234375 C 3.21875 -2.960938 3.148438 -2.695312 3.015625 -2.4375 C 2.878906 -2.1875 2.707031 -1.9375 2.5 -1.6875 C 2.300781 -1.445312 2.082031 -1.222656 1.84375 -1.015625 C 1.613281 -0.804688 1.398438 -0.617188 1.203125 -0.453125 L 3.375 -0.453125 L 3.375 0 Z M 0.40625 0 "/></g></g></g><g fill="rgb(100%, 91.369629%, 83.529663%)" fill-opacity="1"><g transform="translate(41.648217, 32.655086)"><g><path d="M 0.40625 0 L 0.40625 -0.375 C 0.707031 -0.613281 0.992188 -0.859375 1.265625 -1.109375 C 1.535156 -1.359375 1.773438 -1.601562 1.984375 -1.84375 C 2.203125 -2.082031 2.367188 -2.316406 2.484375 -2.546875 C 2.609375 -2.773438 2.671875 -2.992188 2.671875 -3.203125 C 2.671875 -3.367188 2.644531 -3.519531 2.59375 -3.65625 C 2.539062 -3.789062 2.453125 -3.898438 2.328125 -3.984375 C 2.210938 -4.066406 2.050781 -4.109375 1.84375 -4.109375 C 1.644531 -4.109375 1.476562 -4.0625 1.34375 -3.96875 C 1.21875 -3.882812 1.117188 -3.769531 1.046875 -3.625 C 0.984375 -3.476562 0.953125 -3.320312 0.953125 -3.15625 L 0.4375 -3.15625 C 0.4375 -3.457031 0.5 -3.710938 0.625 -3.921875 C 0.75 -4.128906 0.914062 -4.289062 1.125 -4.40625 C 1.34375 -4.519531 1.585938 -4.578125 1.859375 -4.578125 C 2.253906 -4.578125 2.578125 -4.460938 2.828125 -4.234375 C 3.085938 -4.003906 3.21875 -3.671875 3.21875 -3.234375 C 3.21875 -2.960938 3.148438 -2.695312 3.015625 -2.4375 C 2.878906 -2.1875 2.707031 -1.9375 2.5 -1.6875 C 2.300781 -1.445312 2.082031 -1.222656 1.84375 -1.015625 C 1.613281 -0.804688 1.398438 -0.617188 1.203125 -0.453125 L 3.375 -0.453125 L 3.375 0 Z M 0.40625 0 "/></g></g></g></svg>