<svg xmlns="http://www.w3.org/2000/svg" xmlns:xlink="http://www.w3.org/1999/xlink" width="151" zoomAndPan="magnify" viewBox="0 0 113.25 40.499999" height="54" preserveAspectRatio="xMidYMid meet" version="1.0"><defs><g><g id="id1"/></g><clipPath id="id2"><path d="M 0.320312 15 L 13 15 L 13 27 L 0.320312 27 Z M 0.320312 15 " clip-rule="nonzero"/></clipPath><clipPath id="id3"><path d="M 2 11.113281 L 31 11.113281 L 31 28.894531 L 2 28.894531 Z M 2 11.113281 " clip-rule="nonzero"/></clipPath><clipPath id="id4"><path d="M 38 13 L 38.105469 13 L 38.105469 27 L 38 27 Z M 38 13 " clip-rule="nonzero"/></clipPath></defs><g clip-path="url(#id2)"><path fill="rgb(100%, 76.078796%, 31.369019%)" d="M 12.832031 26.140625 C 8.074219 27.621094 0.390625 26.109375 0.320312 19.519531 C 0.253906 12.929688 8.457031 16.851562 8.457031 16.851562 Z M 12.832031 26.140625 " fill-opacity="1" fill-rule="nonzero"/></g><g clip-path="url(#id3)"><path fill="rgb(100%, 81.568909%, 39.219666%)" d="M 2.632812 15.820312 C 5.957031 15.25 8.476562 19.652344 11.269531 24.242188 C 14.058594 28.835938 21.328125 30.652344 25.96875 26.792969 C 30.613281 22.933594 32.578125 16.171875 26.878906 12.136719 C 21.175781 8.105469 17.617188 17.261719 12.707031 17.511719 C 7.800781 17.765625 7.765625 14.117188 2.632812 15.820312 Z M 2.632812 15.820312 " fill-opacity="1" fill-rule="nonzero"/></g><path fill="rgb(100%, 88.238525%, 61.569214%)" d="M 27.851562 19.722656 C 27.851562 19.917969 27.816406 20.101562 27.742188 20.28125 C 27.667969 20.460938 27.5625 20.617188 27.425781 20.753906 C 27.289062 20.890625 27.132812 20.996094 26.953125 21.070312 C 26.773438 21.144531 26.589844 21.179688 26.394531 21.179688 C 26.203125 21.179688 26.015625 21.144531 25.839844 21.070312 C 25.660156 20.996094 25.503906 20.890625 25.367188 20.753906 C 25.230469 20.617188 25.125 20.460938 25.050781 20.28125 C 24.976562 20.101562 24.9375 19.917969 24.9375 19.722656 C 24.9375 19.53125 24.976562 19.34375 25.050781 19.164062 C 25.125 18.988281 25.230469 18.828125 25.367188 18.691406 C 25.503906 18.554688 25.660156 18.449219 25.839844 18.375 C 26.015625 18.300781 26.203125 18.265625 26.394531 18.265625 C 26.589844 18.265625 26.773438 18.300781 26.953125 18.375 C 27.132812 18.449219 27.289062 18.554688 27.425781 18.691406 C 27.5625 18.828125 27.667969 18.988281 27.742188 19.164062 C 27.816406 19.34375 27.851562 19.53125 27.851562 19.722656 Z M 27.851562 19.722656 " fill-opacity="1" fill-rule="nonzero"/><path fill="rgb(100%, 88.238525%, 61.569214%)" d="M 24.695312 20.816406 C 24.695312 20.960938 24.667969 21.101562 24.613281 21.234375 C 24.558594 21.367188 24.476562 21.488281 24.375 21.589844 C 24.273438 21.691406 24.15625 21.769531 24.019531 21.824219 C 23.886719 21.882812 23.746094 21.910156 23.601562 21.910156 C 23.457031 21.910156 23.316406 21.882812 23.183594 21.824219 C 23.050781 21.769531 22.929688 21.691406 22.828125 21.589844 C 22.726562 21.488281 22.648438 21.367188 22.59375 21.234375 C 22.535156 21.101562 22.507812 20.960938 22.507812 20.816406 C 22.507812 20.671875 22.535156 20.53125 22.59375 20.398438 C 22.648438 20.261719 22.726562 20.144531 22.828125 20.042969 C 22.929688 19.941406 23.050781 19.859375 23.183594 19.804688 C 23.316406 19.75 23.457031 19.722656 23.601562 19.722656 C 23.746094 19.722656 23.886719 19.75 24.019531 19.804688 C 24.15625 19.859375 24.273438 19.941406 24.375 20.042969 C 24.476562 20.144531 24.558594 20.261719 24.613281 20.398438 C 24.667969 20.53125 24.695312 20.671875 24.695312 20.816406 Z M 24.695312 20.816406 " fill-opacity="1" fill-rule="nonzero"/><path fill="rgb(100%, 88.238525%, 61.569214%)" d="M 26.398438 22.273438 C 26.398438 22.507812 26.3125 22.710938 26.148438 22.875 C 25.980469 23.042969 25.78125 23.125 25.546875 23.125 C 25.3125 23.125 25.109375 23.042969 24.945312 22.875 C 24.777344 22.710938 24.695312 22.507812 24.695312 22.273438 C 24.695312 22.039062 24.777344 21.839844 24.945312 21.671875 C 25.109375 21.507812 25.3125 21.421875 25.546875 21.421875 C 25.78125 21.421875 25.980469 21.507812 26.148438 21.671875 C 26.3125 21.839844 26.398438 22.039062 26.398438 22.273438 Z M 26.398438 22.273438 " fill-opacity="1" fill-rule="nonzero"/><g clip-path="url(#id4)"><path fill="rgb(96.859741%, 57.649231%, 10.198975%)" d="M 38.183594 25.929688 L 38.183594 13.484375 L 43.179688 13.484375 C 44.472656 13.484375 45.457031 13.785156 46.132812 14.390625 C 46.820312 14.984375 47.164062 15.746094 47.164062 16.683594 C 47.164062 17.464844 46.949219 18.09375 46.523438 18.570312 C 46.109375 19.03125 45.597656 19.34375 44.992188 19.511719 C 45.707031 19.652344 46.292969 20.007812 46.753906 20.578125 C 47.214844 21.136719 47.449219 21.785156 47.449219 22.535156 C 47.449219 23.519531 47.09375 24.328125 46.382812 24.96875 C 45.667969 25.609375 44.664062 25.929688 43.359375 25.929688 Z M 40.460938 18.710938 L 42.84375 18.710938 C 43.484375 18.710938 43.976562 18.5625 44.320312 18.265625 C 44.664062 17.96875 44.835938 17.550781 44.835938 17.003906 C 44.835938 16.484375 44.664062 16.074219 44.320312 15.777344 C 43.988281 15.46875 43.484375 15.316406 42.808594 15.316406 L 40.460938 15.316406 Z M 40.460938 24.082031 L 43.003906 24.082031 C 43.679688 24.082031 44.199219 23.925781 44.566406 23.617188 C 44.945312 23.296875 45.136719 22.855469 45.136719 22.285156 C 45.136719 21.703125 44.941406 21.246094 44.550781 20.914062 C 44.160156 20.582031 43.632812 20.417969 42.96875 20.417969 L 40.460938 20.417969 Z M 51.675781 26.144531 C 50.917969 26.144531 50.296875 26.023438 49.808594 25.789062 C 49.324219 25.539062 48.960938 25.210938 48.726562 24.808594 C 48.488281 24.40625 48.371094 23.960938 48.371094 23.476562 C 48.371094 22.660156 48.691406 21.996094 49.328125 21.484375 C 49.96875 20.976562 50.929688 20.71875 52.210938 20.71875 L 54.449219 20.71875 L 54.449219 20.507812 C 54.449219 19.902344 54.277344 19.457031 53.933594 19.171875 C 53.589844 18.890625 53.164062 18.746094 52.65625 18.746094 C 52.191406 18.746094 51.789062 18.859375 51.445312 19.085938 C 51.101562 19.296875 50.890625 19.617188 50.804688 20.042969 L 48.582031 20.042969 C 48.640625 19.40625 48.855469 18.847656 49.222656 18.375 C 49.601562 17.898438 50.089844 17.539062 50.679688 17.289062 C 51.273438 17.027344 51.9375 16.898438 52.671875 16.898438 C 53.929688 16.898438 54.917969 17.210938 55.640625 17.839844 C 56.363281 18.46875 56.726562 19.355469 56.726562 20.507812 L 56.726562 25.929688 L 54.789062 25.929688 L 54.574219 24.507812 C 54.316406 24.980469 53.945312 25.371094 53.472656 25.679688 C 53.011719 25.988281 52.410156 26.144531 51.675781 26.144531 Z M 52.191406 24.363281 C 52.84375 24.363281 53.347656 24.152344 53.703125 23.726562 C 54.070312 23.296875 54.300781 22.769531 54.398438 22.144531 L 52.460938 22.144531 C 51.855469 22.144531 51.421875 22.253906 51.160156 22.480469 C 50.902344 22.695312 50.769531 22.960938 50.769531 23.28125 C 50.769531 23.625 50.902344 23.890625 51.160156 24.082031 C 51.421875 24.269531 51.765625 24.363281 52.191406 24.363281 Z M 61.996094 25.929688 C 61.070312 25.929688 60.328125 25.703125 59.773438 25.253906 C 59.214844 24.804688 58.9375 24.003906 58.9375 22.855469 L 58.9375 19.011719 L 57.425781 19.011719 L 57.425781 17.109375 L 58.9375 17.109375 L 59.203125 14.746094 L 61.214844 14.746094 L 61.214844 17.109375 L 63.59375 17.109375 L 63.59375 19.011719 L 61.214844 19.011719 L 61.214844 22.871094 C 61.214844 23.296875 61.300781 23.59375 61.480469 23.761719 C 61.667969 23.914062 61.988281 23.992188 62.441406 23.992188 L 63.542969 23.992188 L 63.542969 25.929688 Z M 67.878906 26.144531 C 67.121094 26.144531 66.496094 26.023438 66.011719 25.789062 C 65.527344 25.539062 65.164062 25.210938 64.925781 24.808594 C 64.691406 24.40625 64.570312 23.960938 64.570312 23.476562 C 64.570312 22.660156 64.890625 21.996094 65.53125 21.484375 C 66.171875 20.976562 67.132812 20.71875 68.414062 20.71875 L 70.652344 20.71875 L 70.652344 20.507812 C 70.652344 19.902344 70.480469 19.457031 70.136719 19.171875 C 69.792969 18.890625 69.367188 18.746094 68.855469 18.746094 C 68.394531 18.746094 67.992188 18.859375 67.648438 19.085938 C 67.304688 19.296875 67.089844 19.617188 67.007812 20.042969 L 64.785156 20.042969 C 64.84375 19.40625 65.058594 18.847656 65.425781 18.375 C 65.804688 17.898438 66.289062 17.539062 66.882812 17.289062 C 67.476562 17.027344 68.140625 16.898438 68.875 16.898438 C 70.132812 16.898438 71.121094 17.210938 71.84375 17.839844 C 72.566406 18.46875 72.929688 19.355469 72.929688 20.507812 L 72.929688 25.929688 L 70.992188 25.929688 L 70.777344 24.507812 C 70.515625 24.980469 70.148438 25.371094 69.675781 25.679688 C 69.210938 25.988281 68.613281 26.144531 67.878906 26.144531 Z M 68.394531 24.363281 C 69.046875 24.363281 69.550781 24.152344 69.90625 23.726562 C 70.273438 23.296875 70.503906 22.769531 70.597656 22.144531 L 68.660156 22.144531 C 68.058594 22.144531 67.625 22.253906 67.363281 22.480469 C 67.101562 22.695312 66.972656 22.960938 66.972656 23.28125 C 66.972656 23.625 67.101562 23.890625 67.363281 24.082031 C 67.625 24.269531 67.96875 24.363281 68.394531 24.363281 Z M 78.195312 25.929688 C 77.273438 25.929688 76.53125 25.703125 75.972656 25.253906 C 75.417969 24.804688 75.140625 24.003906 75.140625 22.855469 L 75.140625 19.011719 L 73.628906 19.011719 L 73.628906 17.109375 L 75.140625 17.109375 L 75.40625 14.746094 L 77.414062 14.746094 L 77.414062 17.109375 L 79.796875 17.109375 L 79.796875 19.011719 L 77.414062 19.011719 L 77.414062 22.871094 C 77.414062 23.296875 77.503906 23.59375 77.679688 23.761719 C 77.871094 23.914062 78.191406 23.992188 78.640625 23.992188 L 79.742188 23.992188 L 79.742188 25.929688 Z M 84.082031 26.144531 C 83.320312 26.144531 82.699219 26.023438 82.214844 25.789062 C 81.726562 25.539062 81.367188 25.210938 81.128906 24.808594 C 80.890625 24.40625 80.773438 23.960938 80.773438 23.476562 C 80.773438 22.660156 81.09375 21.996094 81.734375 21.484375 C 82.375 20.976562 83.332031 20.71875 84.613281 20.71875 L 86.855469 20.71875 L 86.855469 20.507812 C 86.855469 19.902344 86.683594 19.457031 86.339844 19.171875 C 85.996094 18.890625 85.566406 18.746094 85.058594 18.746094 C 84.597656 18.746094 84.191406 18.859375 83.847656 19.085938 C 83.503906 19.296875 83.292969 19.617188 83.210938 20.042969 L 80.988281 20.042969 C 81.046875 19.40625 81.257812 18.847656 81.625 18.375 C 82.007812 17.898438 82.492188 17.539062 83.085938 17.289062 C 83.675781 17.027344 84.339844 16.898438 85.074219 16.898438 C 86.332031 16.898438 87.320312 17.210938 88.046875 17.839844 C 88.769531 18.46875 89.128906 19.355469 89.128906 20.507812 L 89.128906 25.929688 L 87.191406 25.929688 L 86.976562 24.507812 C 86.71875 24.980469 86.351562 25.371094 85.875 25.679688 C 85.414062 25.988281 84.816406 26.144531 84.082031 26.144531 Z M 84.597656 24.363281 C 85.246094 24.363281 85.75 24.152344 86.105469 23.726562 C 86.476562 23.296875 86.707031 22.769531 86.800781 22.144531 L 84.863281 22.144531 C 84.257812 22.144531 83.824219 22.253906 83.566406 22.480469 C 83.304688 22.695312 83.171875 22.960938 83.171875 23.28125 C 83.171875 23.625 83.304688 23.890625 83.566406 24.082031 C 83.824219 24.269531 84.167969 24.363281 84.597656 24.363281 Z M 95.820312 26.144531 C 95.15625 26.144531 94.574219 26.019531 94.074219 25.769531 C 93.578125 25.519531 93.175781 25.171875 92.867188 24.722656 L 92.617188 25.929688 L 90.589844 25.929688 L 90.589844 13.128906 L 92.867188 13.128906 L 92.867188 18.375 C 93.152344 17.980469 93.523438 17.636719 93.988281 17.34375 C 94.460938 17.046875 95.070312 16.898438 95.820312 16.898438 C 96.648438 16.898438 97.390625 17.097656 98.039062 17.5 C 98.691406 17.90625 99.207031 18.457031 99.585938 19.15625 C 99.96875 19.855469 100.15625 20.648438 100.15625 21.539062 C 100.15625 22.425781 99.96875 23.222656 99.585938 23.921875 C 99.207031 24.609375 98.691406 25.152344 98.039062 25.554688 C 97.390625 25.949219 96.648438 26.144531 95.820312 26.144531 Z M 95.339844 24.152344 C 96.0625 24.152344 96.660156 23.910156 97.132812 23.421875 C 97.609375 22.9375 97.84375 22.308594 97.84375 21.539062 C 97.84375 20.769531 97.609375 20.132812 97.132812 19.636719 C 96.660156 19.136719 96.0625 18.890625 95.339844 18.890625 C 94.601562 18.890625 94 19.136719 93.523438 19.636719 C 93.0625 20.121094 92.832031 20.75 92.832031 21.519531 C 92.832031 22.289062 93.0625 22.925781 93.523438 23.421875 C 94 23.910156 94.601562 24.152344 95.339844 24.152344 Z M 102.707031 15.742188 C 102.289062 15.742188 101.945312 15.617188 101.675781 15.367188 C 101.414062 15.121094 101.28125 14.804688 101.28125 14.425781 C 101.28125 14.046875 101.414062 13.738281 101.675781 13.5 C 101.945312 13.253906 102.289062 13.128906 102.707031 13.128906 C 103.121094 13.128906 103.457031 13.253906 103.71875 13.5 C 103.992188 13.738281 104.128906 14.046875 104.128906 14.425781 C 104.128906 14.804688 103.992188 15.121094 103.71875 15.367188 C 103.457031 15.617188 103.121094 15.742188 102.707031 15.742188 Z M 101.566406 25.929688 L 101.566406 17.109375 L 103.84375 17.109375 L 103.84375 25.929688 Z M 109.4375 25.929688 C 108.511719 25.929688 107.773438 25.703125 107.214844 25.253906 C 106.65625 24.804688 106.378906 24.003906 106.378906 22.855469 L 106.378906 19.011719 L 104.867188 19.011719 L 104.867188 17.109375 L 106.378906 17.109375 L 106.644531 14.746094 L 108.65625 14.746094 L 108.65625 17.109375 L 111.039062 17.109375 L 111.039062 19.011719 L 108.65625 19.011719 L 108.65625 22.871094 C 108.65625 23.296875 108.742188 23.59375 108.921875 23.761719 C 109.113281 23.914062 109.429688 23.992188 109.882812 23.992188 L 110.984375 23.992188 L 110.984375 25.929688 Z M 109.4375 25.929688 " fill-opacity="1" fill-rule="nonzero"/></g><g fill="rgb(96.859741%, 57.649231%, 10.198975%)" fill-opacity="1"><g transform="translate(37.792496, 25.825384)"><g><path d="M 4.4375 0.21875 C 3.238281 0.21875 2.273438 -0.117188 1.546875 -0.796875 C 0.816406 -1.484375 0.453125 -2.453125 0.453125 -3.703125 L 2.71875 -3.703125 C 2.726562 -3.117188 2.863281 -2.65625 3.125 -2.3125 C 3.382812 -1.96875 3.804688 -1.796875 4.390625 -1.796875 C 4.929688 -1.796875 5.320312 -1.957031 5.5625 -2.28125 C 5.8125 -2.613281 5.9375 -3.046875 5.9375 -3.578125 L 5.9375 -12.375 L 8.203125 -12.375 L 8.203125 -3.578125 C 8.203125 -2.359375 7.863281 -1.421875 7.1875 -0.765625 C 6.507812 -0.109375 5.59375 0.21875 4.4375 0.21875 Z M 4.4375 0.21875 "/></g></g></g><g fill="rgb(96.859741%, 57.649231%, 10.198975%)" fill-opacity="1"><g transform="translate(47.197832, 25.825384)"><g><path d="M 5.359375 0.21875 C 4.503906 0.21875 3.738281 0.0234375 3.0625 -0.359375 C 2.382812 -0.753906 1.847656 -1.296875 1.453125 -1.984375 C 1.054688 -2.679688 0.859375 -3.484375 0.859375 -4.390625 C 0.859375 -5.296875 1.054688 -6.09375 1.453125 -6.78125 C 1.859375 -7.46875 2.398438 -8.003906 3.078125 -8.390625 C 3.765625 -8.785156 4.53125 -8.984375 5.375 -8.984375 C 6.21875 -8.984375 6.976562 -8.785156 7.65625 -8.390625 C 8.332031 -8.003906 8.867188 -7.46875 9.265625 -6.78125 C 9.660156 -6.09375 9.859375 -5.296875 9.859375 -4.390625 C 9.859375 -3.484375 9.660156 -2.679688 9.265625 -1.984375 C 8.867188 -1.296875 8.328125 -0.753906 7.640625 -0.359375 C 6.953125 0.0234375 6.191406 0.21875 5.359375 0.21875 Z M 5.359375 -1.75 C 5.953125 -1.75 6.460938 -1.96875 6.890625 -2.40625 C 7.328125 -2.851562 7.546875 -3.515625 7.546875 -4.390625 C 7.546875 -5.265625 7.328125 -5.921875 6.890625 -6.359375 C 6.460938 -6.796875 5.957031 -7.015625 5.375 -7.015625 C 4.769531 -7.015625 4.253906 -6.796875 3.828125 -6.359375 C 3.398438 -5.921875 3.1875 -5.265625 3.1875 -4.390625 C 3.1875 -3.515625 3.398438 -2.851562 3.828125 -2.40625 C 4.253906 -1.96875 4.765625 -1.75 5.359375 -1.75 Z M 5.359375 -1.75 "/></g></g></g><g fill="rgb(96.859741%, 57.649231%, 10.198975%)" fill-opacity="1"><g transform="translate(57.911434, 25.825384)"><g><path d="M 4.78125 0.21875 C 4 0.21875 3.3125 0.09375 2.71875 -0.15625 C 2.132812 -0.414062 1.664062 -0.769531 1.3125 -1.21875 C 0.957031 -1.664062 0.742188 -2.1875 0.671875 -2.78125 L 2.953125 -2.78125 C 3.023438 -2.4375 3.21875 -2.140625 3.53125 -1.890625 C 3.84375 -1.648438 4.242188 -1.53125 4.734375 -1.53125 C 5.234375 -1.53125 5.597656 -1.628906 5.828125 -1.828125 C 6.054688 -2.035156 6.171875 -2.269531 6.171875 -2.53125 C 6.171875 -2.90625 6.003906 -3.160156 5.671875 -3.296875 C 5.347656 -3.429688 4.890625 -3.566406 4.296875 -3.703125 C 3.921875 -3.785156 3.535156 -3.882812 3.140625 -4 C 2.753906 -4.113281 2.398438 -4.257812 2.078125 -4.4375 C 1.753906 -4.625 1.488281 -4.863281 1.28125 -5.15625 C 1.082031 -5.445312 0.984375 -5.800781 0.984375 -6.21875 C 0.984375 -7 1.289062 -7.65625 1.90625 -8.1875 C 2.53125 -8.71875 3.40625 -8.984375 4.53125 -8.984375 C 5.5625 -8.984375 6.382812 -8.738281 7 -8.25 C 7.625 -7.769531 8 -7.109375 8.125 -6.265625 L 5.984375 -6.265625 C 5.847656 -6.910156 5.359375 -7.234375 4.515625 -7.234375 C 4.085938 -7.234375 3.757812 -7.148438 3.53125 -6.984375 C 3.300781 -6.816406 3.1875 -6.613281 3.1875 -6.375 C 3.1875 -6.113281 3.351562 -5.90625 3.6875 -5.75 C 4.03125 -5.59375 4.488281 -5.453125 5.0625 -5.328125 C 5.675781 -5.179688 6.238281 -5.019531 6.75 -4.84375 C 7.257812 -4.675781 7.664062 -4.425781 7.96875 -4.09375 C 8.28125 -3.757812 8.4375 -3.28125 8.4375 -2.65625 C 8.445312 -2.113281 8.300781 -1.625 8 -1.1875 C 7.707031 -0.75 7.285156 -0.40625 6.734375 -0.15625 C 6.179688 0.09375 5.53125 0.21875 4.78125 0.21875 Z M 4.78125 0.21875 "/></g></g></g><g fill="rgb(96.859741%, 57.649231%, 10.198975%)" fill-opacity="1"><g transform="translate(67.193024, 25.825384)"><g><path d="M 1.15625 0 L 1.15625 -8.765625 L 3.140625 -8.765625 L 3.328125 -7.28125 C 3.597656 -7.800781 3.988281 -8.210938 4.5 -8.515625 C 5.007812 -8.828125 5.613281 -8.984375 6.3125 -8.984375 C 7.394531 -8.984375 8.238281 -8.640625 8.84375 -7.953125 C 9.445312 -7.273438 9.75 -6.273438 9.75 -4.953125 L 9.75 0 L 7.484375 0 L 7.484375 -4.734375 C 7.484375 -5.492188 7.328125 -6.070312 7.015625 -6.46875 C 6.710938 -6.875 6.238281 -7.078125 5.59375 -7.078125 C 4.957031 -7.078125 4.429688 -6.851562 4.015625 -6.40625 C 3.609375 -5.957031 3.40625 -5.332031 3.40625 -4.53125 L 3.40625 0 Z M 1.15625 0 "/></g></g></g><g fill="rgb(96.859741%, 57.649231%, 10.198975%)" fill-opacity="1"><g transform="translate(77.941984, 25.825384)"><g><path d="M 2.25 3.890625 L 4.28125 -0.578125 L 3.75 -0.578125 L 0.34375 -8.765625 L 2.796875 -8.765625 L 5.25 -2.59375 L 7.8125 -8.765625 L 10.21875 -8.765625 L 4.65625 3.890625 Z M 2.25 3.890625 "/></g></g></g><g fill="rgb(96.859741%, 57.649231%, 10.198975%)" fill-opacity="1"><g transform="translate(88.49647, 25.825384)"><g><path d="M 6.34375 0.21875 C 5.6875 0.21875 5.109375 0.09375 4.609375 -0.15625 C 4.117188 -0.40625 3.71875 -0.753906 3.40625 -1.203125 L 3.171875 0 L 1.15625 0 L 1.15625 -12.734375 L 3.40625 -12.734375 L 3.40625 -7.515625 C 3.695312 -7.898438 4.070312 -8.238281 4.53125 -8.53125 C 5 -8.832031 5.601562 -8.984375 6.34375 -8.984375 C 7.175781 -8.984375 7.914062 -8.78125 8.5625 -8.375 C 9.207031 -7.976562 9.71875 -7.429688 10.09375 -6.734375 C 10.476562 -6.046875 10.671875 -5.257812 10.671875 -4.375 C 10.671875 -3.488281 10.476562 -2.695312 10.09375 -2 C 9.71875 -1.3125 9.207031 -0.769531 8.5625 -0.375 C 7.914062 0.0195312 7.175781 0.21875 6.34375 0.21875 Z M 5.875 -1.765625 C 6.59375 -1.765625 7.1875 -2.003906 7.65625 -2.484375 C 8.125 -2.972656 8.359375 -3.601562 8.359375 -4.375 C 8.359375 -5.132812 8.125 -5.757812 7.65625 -6.25 C 7.1875 -6.75 6.59375 -7 5.875 -7 C 5.144531 -7 4.546875 -6.753906 4.078125 -6.265625 C 3.609375 -5.773438 3.375 -5.148438 3.375 -4.390625 C 3.375 -3.617188 3.609375 -2.988281 4.078125 -2.5 C 4.546875 -2.007812 5.144531 -1.765625 5.875 -1.765625 Z M 5.875 -1.765625 "/></g></g></g><g fill="rgb(96.859741%, 57.649231%, 10.198975%)" fill-opacity="1"><g transform="translate(100.02332, 25.825384)"><g><path d="M 2.375 -10.140625 C 1.957031 -10.140625 1.613281 -10.257812 1.34375 -10.5 C 1.082031 -10.75 0.953125 -11.0625 0.953125 -11.4375 C 0.953125 -11.820312 1.082031 -12.132812 1.34375 -12.375 C 1.613281 -12.613281 1.957031 -12.734375 2.375 -12.734375 C 2.78125 -12.734375 3.113281 -12.613281 3.375 -12.375 C 3.644531 -12.132812 3.78125 -11.820312 3.78125 -11.4375 C 3.78125 -11.0625 3.644531 -10.75 3.375 -10.5 C 3.113281 -10.257812 2.78125 -10.140625 2.375 -10.140625 Z M 1.234375 0 L 1.234375 -8.765625 L 3.5 -8.765625 L 3.5 0 Z M 1.234375 0 "/></g></g></g><g fill="rgb(96.859741%, 57.649231%, 10.198975%)" fill-opacity="1"><g transform="translate(104.743673, 25.825384)"><g><path d="M 5.0625 0 C 4.132812 0 3.394531 -0.222656 2.84375 -0.671875 C 2.289062 -1.117188 2.015625 -1.914062 2.015625 -3.0625 L 2.015625 -6.875 L 0.515625 -6.875 L 0.515625 -8.765625 L 2.015625 -8.765625 L 2.28125 -11.125 L 4.28125 -11.125 L 4.28125 -8.765625 L 6.65625 -8.765625 L 6.65625 -6.875 L 4.28125 -6.875 L 4.28125 -3.046875 C 4.28125 -2.617188 4.367188 -2.320312 4.546875 -2.15625 C 4.734375 -2 5.050781 -1.921875 5.5 -1.921875 L 6.59375 -1.921875 L 6.59375 0 Z M 5.0625 0 "/></g></g></g></svg>